<svg xmlns="http://www.w3.org/2000/svg" version="1.2" viewBox="0 0 1568 414"><path fill="#20419a" d="M1156.5 413.1H.9L111.3.9h1155.6z"/><path fill="#f58220" d="M1456.9 413.1h-300.4L1266.9.9h300.4z"/><path fill="#fff" d="m1443.9 102.5-55.6 209c-2 6-8 10-13 10h-56.7c-4.9 0-7.9-5-6.9-10l37.8-140.3c0-3 1-5-1-5s-14.9 7-25.9 11.9c-5.9 2-22.9 9-31.8 9-9 0-10-6-8-13.9l7-25.9c2-9 6-12 12.9-14 6-2 17.9-7.9 32.8-14.9 17.9-8 33.9-17.9 38.8-20.9 5-3 9-4 14.9-4h46.8c5 0 7.9 4 7.9 9zM417.6 231.9l36.8-138.4h46.8l-36.8 138.4c-9 36.8 6.9 54.7 47.7 54.7 40.8 0 64.7-17.9 73.6-54.7l37.8-138.4h45.7l-36.8 138.4c-13.9 60.7-56.6 91.6-128.2 91.6s-100.5-30.9-86.6-91.6zM890 93.5l-9.9 36.9h-70.6l-50.8 191.1H713l50.7-191.1h-72.6l10-36.9z"/><path fill="#fff" fill-rule="evenodd" d="M890 208q26.9-116.5 152.2-116.5 122.3 0 95.4 116.5c-17.9 76.6-67.6 115.5-150.1 115.5-78.6 0-111.4-38.9-97.5-115.5zm106.4 78.6c49.8 0 83.6-26.8 95.5-79.6 11.9-51.8-9-78.6-58.7-78.6-51.7 0-85.5 25.8-97.4 78.6-13 52.8 8.9 79.6 60.6 79.6z"/><path fill="#fff" d="m346 321.5-16.9-61.7h-89.5l25.9-36.9h53.7l-21.9-81.6L172 321.5h-46.7l159.1-228h46.7l60.7 228z"/></svg>
